<?xml version="1.0" encoding="UTF-8"?>
<svg width="238px" height="62px" viewBox="0 0 238 62" version="1.1" xmlns="http://www.w3.org/2000/svg" xmlns:xlink="http://www.w3.org/1999/xlink">
    <!-- Generator: Sketch 52.4 (67378) - http://www.bohemiancoding.com/sketch -->
    <title>Logo</title>
    <desc>Created with Sketch.</desc>
    <g id="Logo" stroke="none" stroke-width="1" fill="none" fill-rule="evenodd">
        <path d="M35.40625,9.89257812 L35.40625,51 L26.0371094,51 L20.4765625,32.3125 L20.4765625,51 L11.5390625,51 L11.5390625,9.89257812 L20.4765625,9.89257812 L26.46875,28.4023438 L26.46875,9.89257812 L35.40625,9.89257812 Z M64.1230469,33.9628906 C64.1230469,38.0931196 64.0257171,41.017244 63.8310547,42.7353516 C63.6363923,44.4534591 63.0270233,46.0234304 62.0029297,47.4453125 C60.978836,48.8671946 59.5950608,49.9589806 57.8515625,50.7207031 C56.1080642,51.4824257 54.0768345,51.8632812 51.7578125,51.8632812 C49.5572807,51.8632812 47.5810634,51.5035843 45.8291016,50.7841797 C44.0771397,50.064775 42.6679741,48.9856843 41.6015625,47.546875 C40.5351509,46.1080657 39.9003916,44.5423262 39.6972656,42.8496094 C39.4941396,41.1568926 39.3925781,38.1946826 39.3925781,33.9628906 L39.3925781,26.9296875 C39.3925781,22.7994585 39.4899079,19.8753341 39.6845703,18.1572266 C39.8792327,16.439119 40.4886017,14.8691477 41.5126953,13.4472656 C42.536789,12.0253835 43.9205642,10.9335976 45.6640625,10.171875 C47.4075608,9.41015244 49.4387905,9.02929688 51.7578125,9.02929688 C53.9583443,9.02929688 55.9345616,9.3889938 57.6865234,10.1083984 C59.4384853,10.8278031 60.8476509,11.9068938 61.9140625,13.3457031 C62.9804741,14.7845124 63.6152334,16.350252 63.8183594,18.0429688 C64.0214854,19.7356855 64.1230469,22.6978955 64.1230469,26.9296875 L64.1230469,33.9628906 Z M53.4335938,20.4550781 C53.4335938,18.5423081 53.3278005,17.3193386 53.1162109,16.7861328 C52.9046213,16.252927 52.4687533,15.9863281 51.8085938,15.9863281 C51.2499972,15.9863281 50.8225926,16.2021463 50.5263672,16.6337891 C50.2301417,17.0654318 50.0820312,18.3391821 50.0820312,20.4550781 L50.0820312,39.6503906 C50.0820312,42.0371213 50.179361,43.5097628 50.3740234,44.0683594 C50.5686859,44.6269559 51.0214808,44.90625 51.7324219,44.90625 C52.4602901,44.90625 52.9257802,44.5846386 53.1289062,43.9414062 C53.3320323,43.2981739 53.4335938,41.7662881 53.4335938,39.3457031 L53.4335938,20.4550781 Z M89.640625,9.89257812 L89.640625,18.1191406 L83.2929688,18.1191406 L83.2929688,51 L72.6035156,51 L72.6035156,18.1191406 L66.28125,18.1191406 L66.28125,9.89257812 L89.640625,9.89257812 Z M110.537109,9.89257812 L116.65625,51 L105.712891,51 L105.179688,43.6113281 L101.345703,43.6113281 L100.710938,51 L89.640625,51 L95.0742188,9.89257812 L110.537109,9.89257812 Z M104.875,36.3242188 C104.333331,31.6692476 103.791669,25.9225602 103.25,19.0839844 C102.166661,26.9381903 101.489585,32.6848776 101.21875,36.3242188 L104.875,36.3242188 Z M118.484375,9.89257812 L126.050781,9.89257812 C131.095077,9.89257812 134.510082,10.0872376 136.295898,10.4765625 C138.081715,10.8658874 139.537429,11.8603436 140.663086,13.4599609 C141.788743,15.0595783 142.351562,17.6113106 142.351562,21.1152344 C142.351562,24.3144691 141.95378,26.4641872 141.158203,27.5644531 C140.362626,28.664719 138.796887,29.3248687 136.460938,29.5449219 C138.576833,30.0696641 139.998694,30.772131 140.726562,31.6523438 C141.454431,32.5325565 141.907226,33.3408166 142.084961,34.0771484 C142.262696,34.8134802 142.351562,36.8404782 142.351562,40.1582031 L142.351562,51 L132.423828,51 L132.423828,37.3398438 C132.423828,35.1393119 132.250327,33.7766953 131.90332,33.2519531 C131.556313,32.7272109 130.646492,32.4648438 129.173828,32.4648438 L129.173828,51 L118.484375,51 L118.484375,9.89257812 Z M129.173828,16.9257812 L129.173828,26.0664062 C130.375657,26.0664062 131.217771,25.9013688 131.700195,25.5712891 C132.18262,25.2412093 132.423828,24.170582 132.423828,22.359375 L132.423828,20.0996094 C132.423828,18.7962174 132.191083,17.9414083 131.725586,17.5351562 C131.260089,17.1289042 130.409511,16.9257812 129.173828,16.9257812 Z M157.179688,9.89257812 L157.179688,51 L146.490234,51 L146.490234,9.89257812 L157.179688,9.89257812 Z M179.345703,9.89257812 L179.345703,18.1191406 L171.373047,42.7734375 L179.345703,42.7734375 L179.345703,51 L159.642578,51 L159.642578,45.0332031 L167.869141,18.1191406 L160.607422,18.1191406 L160.607422,9.89257812 L179.345703,9.89257812 Z M182.113281,9.89257812 L199.9375,9.89257812 L199.9375,18.1191406 L192.802734,18.1191406 L192.802734,25.9140625 L199.480469,25.9140625 L199.480469,33.734375 L192.802734,33.734375 L192.802734,42.7734375 L200.648438,42.7734375 L200.648438,51 L182.113281,51 L182.113281,9.89257812 Z M203.720703,9.89257812 L211.287109,9.89257812 C216.331405,9.89257812 219.74641,10.0872376 221.532227,10.4765625 C223.318043,10.8658874 224.773757,11.8603436 225.899414,13.4599609 C227.025071,15.0595783 227.587891,17.6113106 227.587891,21.1152344 C227.587891,24.3144691 227.190108,26.4641872 226.394531,27.5644531 C225.598954,28.664719 224.033215,29.3248687 221.697266,29.5449219 C223.813162,30.0696641 225.235022,30.772131 225.962891,31.6523438 C226.690759,32.5325565 227.143554,33.3408166 227.321289,34.0771484 C227.499024,34.8134802 227.587891,36.8404782 227.587891,40.1582031 L227.587891,51 L217.660156,51 L217.660156,37.3398438 C217.660156,35.1393119 217.486655,33.7766953 217.139648,33.2519531 C216.792641,32.7272109 215.88282,32.4648438 214.410156,32.4648438 L214.410156,51 L203.720703,51 L203.720703,9.89257812 Z M214.410156,16.9257812 L214.410156,26.0664062 C215.611985,26.0664062 216.454099,25.9013688 216.936523,25.5712891 C217.418948,25.2412093 217.660156,24.170582 217.660156,22.359375 L217.660156,20.0996094 C217.660156,18.7962174 217.427411,17.9414083 216.961914,17.5351562 C216.496417,17.1289042 215.64584,16.9257812 214.410156,16.9257812 Z" id="Notarizer" fill="#DD2B41"></path>
        <rect id="Rectangle" stroke="#DD2B41" stroke-width="6" x="3" y="3" width="232" height="56" rx="6"></rect>
    </g>
</svg>